<?xml version="1.0" standalone="no"?>
<!DOCTYPE svg PUBLIC "-//W3C//DTD SVG 20010904//EN"
 "http://www.w3.org/TR/2001/REC-SVG-20010904/DTD/svg10.dtd">
<svg version="1.0" xmlns="http://www.w3.org/2000/svg"
 width="1200.000000pt" height="1200.000000pt" viewBox="0 0 1200.000000 1200.000000"
 preserveAspectRatio="xMidYMid meet">
<metadata>
Created by potrace 1.14, written by Peter Selinger 2001-2017
</metadata>
<g transform="translate(0.000000,1200.000000) scale(0.100000,-0.100000)"
fill="#000000" stroke="none">
<path d="M0 6000 l0 -6000 6000 0 6000 0 0 6000 0 6000 -6000 0 -6000 0 0
-6000z m6190 2992 c70 -35 102 -131 66 -200 -8 -15 -110 -122 -228 -238 -179
-178 -219 -212 -250 -218 -67 -12 -134 19 -163 74 -21 41 -19 116 5 154 26 42
421 423 451 435 37 15 81 13 119 -7z m315 -442 l190 -190 -225 -225 -225 -225
-50 50 -51 50 -424 -455 c-281 -301 -430 -468 -440 -494 -19 -48 -22 -51 -312
-363 -133 -142 -252 -261 -264 -264 -26 -7 -51 5 -120 57 -55 41 -134 148
-134 182 0 30 541 573 595 598 27 12 155 136 405 391 202 205 399 408 440 451
l74 78 -52 52 -52 52 222 222 c123 123 225 223 228 223 3 0 91 -86 195 -190z
m368 -254 c76 -31 112 -114 83 -190 -23 -60 -413 -447 -469 -465 -49 -16 -98
-7 -137 26 -58 48 -74 111 -46 176 16 37 407 427 451 451 37 19 76 20 118 2z
m365 -1621 c13 -10 28 -39 38 -71 21 -74 41 -90 122 -99 36 -4 76 -11 88 -15
59 -23 86 -149 43 -204 -46 -59 -3 -56 -919 -56 -748 0 -846 2 -875 16 -64 30
-89 104 -61 179 22 56 76 85 157 85 47 0 59 4 81 28 15 15 29 45 33 69 5 29
15 49 33 62 26 20 44 20 632 21 531 0 608 -2 628 -15z m-4458 -974 c0 -9 -31
-123 -201 -745 -77 -281 -100 -386 -92 -416 9 -34 56 -26 94 17 27 32 90 152
112 216 7 18 32 23 41 8 7 -11 -37 -120 -81 -198 -41 -75 -90 -120 -139 -129
-83 -15 -125 28 -132 138 -5 82 -10 57 163 689 54 197 95 364 92 373 -5 13
-23 16 -92 16 -47 0 -85 2 -85 4 0 2 3 11 6 20 5 14 29 16 160 16 87 0 154 -4
154 -9z m4740 -1 c0 -12 -11 -52 -124 -470 -150 -551 -159 -584 -164 -647 l-5
-63 30 0 c44 0 89 55 143 173 31 68 49 97 60 94 24 -5 14 -44 -36 -145 -68
-139 -122 -192 -197 -192 -69 0 -107 61 -107 171 0 36 22 134 65 289 35 129
96 348 133 485 48 172 66 254 59 263 -6 8 -38 12 -92 12 -78 0 -83 1 -78 20 5
19 14 20 159 20 98 0 154 -4 154 -10z m-2022 -53 c32 -30 31 -99 -3 -132 -78
-79 -204 40 -135 128 32 41 95 43 138 4z m-2103 -401 c89 -58 84 -189 -11
-276 -69 -64 -210 -120 -302 -120 -45 0 -52 -12 -63 -108 -15 -121 -7 -173 33
-213 30 -29 36 -31 89 -27 92 7 166 70 229 196 14 27 28 42 41 42 25 0 24 -14
-5 -75 -29 -63 -105 -148 -163 -181 -55 -33 -152 -43 -203 -22 -127 54 -187
217 -146 406 38 182 167 339 319 388 52 17 149 12 182 -10z m686 -4 c65 -34
119 -112 119 -173 0 -85 -90 -130 -146 -73 -32 31 -26 68 17 104 35 30 37 49
7 78 -49 45 -125 54 -195 22 -54 -24 -83 -70 -83 -131 0 -53 11 -65 160 -178
109 -81 123 -101 128 -173 13 -176 -179 -306 -381 -259 -121 28 -196 167 -144
267 30 59 114 65 138 10 17 -36 4 -71 -36 -95 -27 -16 -35 -27 -35 -49 0 -56
69 -92 174 -92 116 0 193 66 182 154 -6 54 -28 79 -139 166 -54 41 -105 86
-113 98 -22 32 -30 139 -14 186 44 135 231 206 361 138z m726 3 c73 -37 123
-110 123 -180 0 -48 -42 -95 -84 -95 -50 0 -76 24 -76 70 0 32 6 43 30 60 36
25 38 49 8 78 -49 45 -125 54 -195 22 -54 -24 -83 -70 -83 -132 0 -45 2 -49
58 -95 32 -26 87 -70 123 -97 88 -67 103 -88 107 -161 3 -51 -1 -68 -25 -115
-55 -105 -163 -157 -300 -147 -89 7 -156 44 -192 107 -27 48 -30 123 -7 168
29 57 113 62 137 8 17 -36 4 -71 -36 -95 -27 -16 -35 -27 -35 -49 0 -56 69
-92 174 -92 117 0 193 65 182 154 -6 54 -28 80 -142 167 -108 84 -133 121
-134 199 0 108 51 183 155 225 80 33 146 33 212 0z m542 -1 c48 -40 63 -128
41 -241 -5 -28 -41 -126 -81 -219 -39 -93 -74 -186 -77 -206 -8 -63 30 -87 84
-52 28 19 92 123 126 207 18 46 27 57 43 55 28 -4 23 -26 -30 -133 -70 -143
-133 -205 -210 -205 -75 0 -123 89 -111 205 9 79 17 103 91 280 71 168 86 215
78 245 -7 28 -47 36 -79 15 -31 -20 -95 -119 -130 -202 -19 -45 -32 -63 -46
-63 -27 0 -23 22 22 117 53 113 101 176 153 202 56 28 89 26 126 -5z m561 11
c22 -11 33 -28 45 -67 19 -67 19 -115 -4 -210 -10 -43 -17 -78 -15 -78 2 0 16
24 30 53 72 143 172 268 239 298 133 61 216 -38 185 -222 -8 -45 -39 -135 -85
-243 -40 -94 -75 -184 -78 -200 -8 -44 8 -76 37 -76 44 0 90 53 147 170 51
105 73 128 85 95 8 -19 -85 -208 -125 -256 -74 -88 -179 -91 -222 -7 -21 42
-25 143 -8 217 5 24 41 117 79 207 76 179 88 221 71 253 -30 55 -129 -5 -212
-127 -93 -138 -197 -357 -244 -512 l-22 -75 -62 -3 c-56 -3 -62 -1 -57 15 75
259 158 596 159 646 2 58 1 62 -22 65 -44 7 -96 -61 -155 -200 -22 -51 -34
-68 -49 -68 -25 0 -19 28 28 128 46 98 91 159 140 188 46 28 75 30 115 9z
m2163 1 c38 -15 84 -66 93 -102 10 -38 19 -29 35 34 l15 57 48 3 c74 5 78 2
61 -55 -69 -237 -155 -582 -155 -625 0 -46 1 -48 29 -48 21 0 38 10 61 37 31
34 101 167 113 212 5 22 31 28 42 11 9 -14 -53 -154 -99 -223 -45 -68 -83 -97
-136 -104 -75 -10 -108 31 -119 147 l-6 65 -17 -31 c-27 -50 -117 -143 -159
-165 -51 -25 -114 -24 -169 4 -35 17 -52 35 -74 77 -27 50 -30 63 -29 150 0
113 20 195 73 306 90 186 271 302 393 250z m776 -12 c35 -29 51 -77 51 -149 0
-77 -21 -146 -94 -318 -72 -167 -86 -220 -67 -256 25 -46 117 -15 184 64 124
147 207 327 279 605 l15 55 53 3 c29 2 56 0 60 -5 4 -4 -2 -44 -15 -88 -132
-466 -162 -607 -135 -640 20 -24 89 -19 148 11 73 36 154 129 208 239 61 124
89 245 66 282 -4 6 -28 20 -52 31 -62 27 -85 55 -85 104 0 85 97 118 160 55
143 -143 -36 -638 -272 -753 -76 -38 -184 -44 -231 -14 -48 30 -65 79 -60 172
l5 78 -29 -50 c-40 -70 -141 -175 -194 -201 -98 -47 -194 2 -210 106 -12 81
12 176 85 349 84 196 93 226 77 258 -34 68 -115 0 -186 -155 -34 -73 -49 -97
-64 -97 -25 0 -17 39 29 133 90 182 192 250 274 181z m-5409 -1543 c0 -78 4
-121 12 -129 9 -9 1 -12 -38 -12 -38 1 -45 3 -31 11 14 9 17 26 17 120 0 95
-2 111 -17 117 -14 5 -12 8 12 12 17 4 33 5 38 3 4 -2 7 -57 7 -122z m1580 0
c0 -78 4 -121 12 -129 9 -9 -14 -12 -105 -11 -104 2 -119 4 -128 20 -14 28 4
54 51 73 42 17 53 43 25 66 -17 14 -36 5 -29 -15 8 -19 -23 -32 -38 -17 -18
18 19 52 57 52 45 0 55 -16 55 -87 0 -52 3 -64 20 -73 11 -6 25 -8 30 -5 6 3
10 55 10 116 0 95 -2 111 -17 117 -14 5 -12 8 12 12 17 4 33 5 38 3 4 -2 7
-57 7 -122z m1997 -128 c14 -11 10 -13 -31 -13 -43 0 -46 1 -32 16 22 22 23
206 1 228 -13 13 -12 15 12 18 l28 3 3 -120 c2 -98 5 -122 19 -132z m613 128
c0 -78 4 -121 12 -129 9 -9 1 -12 -37 -12 -39 1 -46 3 -32 11 14 9 17 26 17
120 0 95 -2 111 -17 117 -14 5 -12 8 12 12 17 4 33 5 38 3 4 -2 7 -57 7 -122z
m305 31 c33 15 71 3 79 -24 3 -13 6 -46 6 -73 0 -28 5 -56 12 -63 9 -9 2 -12
-31 -12 -36 0 -42 2 -32 14 7 9 11 40 9 78 -3 55 -6 63 -24 66 -14 2 -24 -5
-32 -23 -16 -34 -15 -108 0 -123 9 -9 3 -12 -31 -12 -39 0 -41 1 -27 16 24 23
23 206 -1 225 -14 13 -13 15 13 19 29 5 29 5 32 -47 3 -51 4 -52 27 -41z
m-3877 65 c4 -20 -25 -34 -40 -19 -15 15 -1 44 19 40 10 -2 19 -11 21 -21z
m700 0 c4 -20 -25 -34 -40 -19 -15 15 -1 44 19 40 10 -2 19 -11 21 -21z m1952
-26 l0 -49 30 11 c50 19 64 2 70 -82 3 -49 10 -75 20 -81 11 -7 3 -10 -27 -10
-24 0 -43 5 -43 10 0 6 5 10 10 10 11 0 14 98 4 124 -8 22 -41 20 -54 -3 -14
-27 -13 -114 2 -129 9 -9 2 -12 -32 -12 -34 0 -41 3 -32 12 8 8 12 49 12 118
0 69 -4 110 -12 118 -9 9 -5 12 20 12 32 0 32 -1 32 -49z m198 26 c4 -21 -27
-35 -38 -17 -12 19 0 42 19 38 9 -2 17 -11 19 -21z m452 -97 c0 -105 2 -122
18 -128 25 -10 -97 -21 -126 -10 -29 10 -45 53 -38 103 6 49 38 78 78 73 26
-4 28 -2 28 27 0 17 -5 36 -12 43 -9 9 -5 12 20 12 l32 0 0 -120z m747 104 c8
-21 -13 -42 -28 -27 -13 13 -5 43 11 43 6 0 13 -7 17 -16z m881 -7 c4 -21 -27
-35 -38 -17 -12 19 0 42 19 38 9 -2 17 -11 19 -21z m192 -97 c0 -105 2 -122
18 -128 25 -10 -97 -21 -126 -10 -29 10 -45 53 -38 103 6 49 38 78 78 73 26
-4 28 -2 28 27 0 17 -5 36 -12 43 -9 9 -5 12 20 12 l32 0 0 -120z m-6710 80
c25 -25 26 -81 3 -103 -10 -8 -35 -18 -55 -22 -35 -7 -38 -10 -38 -41 0 -21 6
-37 18 -43 13 -8 6 -10 -32 -11 -39 0 -47 3 -38 12 8 8 12 47 12 108 0 61 -4
100 -12 108 -9 9 3 12 55 12 54 0 71 -4 87 -20z m2059 -22 l-1 -43 -13 31
c-14 32 -39 49 -56 38 -5 -3 -9 -45 -9 -95 0 -76 3 -92 20 -109 l20 -20 -57 0
c-55 0 -56 1 -35 16 20 14 22 23 22 109 0 52 -4 97 -10 100 -16 10 -50 -14
-50 -35 0 -10 -4 -22 -10 -25 -6 -4 -10 10 -10 34 l0 41 95 0 95 0 -1 -42z
m688 28 c-15 -12 -17 -27 -15 -112 l3 -99 28 -3 c30 -4 67 21 67 45 0 7 5 13
10 13 6 0 10 -16 10 -35 l0 -35 -92 1 c-51 0 -87 3 -80 6 17 7 17 204 0 221
-9 9 -1 12 38 12 43 -1 47 -2 31 -14z m1403 -6 c25 -25 26 -81 3 -103 -10 -8
-35 -18 -55 -22 -35 -7 -38 -10 -38 -41 0 -21 6 -37 18 -43 13 -8 6 -10 -32
-11 -39 0 -47 3 -38 12 8 8 12 47 12 108 0 61 -4 100 -12 108 -9 9 3 12 55 12
54 0 71 -4 87 -20z m1920 -87 c23 -59 46 -113 52 -120 8 -10 1 -13 -32 -13
-35 0 -40 3 -31 14 8 9 8 21 0 45 -10 27 -15 31 -49 31 -33 0 -39 -4 -48 -29
-8 -23 -7 -32 6 -45 15 -15 13 -16 -22 -16 -36 0 -38 1 -24 18 8 9 33 63 54
120 21 56 42 102 46 102 3 0 25 -48 48 -107z m1100 72 c0 -20 5 -25 25 -25 14
0 25 -4 25 -10 0 -5 -11 -10 -25 -10 -24 0 -25 -2 -25 -63 0 -75 15 -99 42
-65 14 19 18 20 18 6 0 -15 -35 -48 -52 -48 -3 0 -14 7 -22 16 -12 11 -16 35
-16 85 0 55 -3 69 -15 69 -8 0 -15 5 -15 10 0 6 7 10 15 10 9 0 15 9 15 25 0
16 6 25 15 25 9 0 15 -9 15 -25z m-7008 -42 c10 -9 18 -27 18 -40 0 -21 -4
-23 -50 -23 -44 0 -50 -3 -50 -21 0 -54 44 -76 83 -41 19 16 19 16 16 -3 -6
-30 -50 -47 -87 -34 -81 28 -60 179 26 179 14 0 34 -7 44 -17z m98 7 c0 -6 9
-5 24 1 34 16 72 4 80 -23 3 -13 6 -46 6 -73 0 -28 5 -56 12 -63 9 -9 2 -12
-32 -12 -34 0 -41 3 -32 12 19 19 16 137 -4 145 -25 9 -46 -22 -52 -77 -4 -42
-1 -53 14 -65 17 -13 15 -14 -29 -15 -44 0 -47 1 -33 16 22 21 22 132 1 140
-8 4 -12 10 -9 15 7 12 54 11 54 -1z m200 1 c0 -5 14 -4 30 2 50 19 64 2 70
-82 3 -49 10 -75 20 -81 11 -7 3 -10 -29 -10 -36 0 -42 2 -32 14 7 9 11 39 9
78 -3 53 -6 63 -22 66 -11 3 -26 -4 -33 -14 -16 -22 -17 -116 -1 -132 9 -9 2
-12 -32 -12 -34 0 -41 3 -32 12 15 15 16 148 2 148 -5 0 -10 5 -10 10 0 6 14
10 30 10 17 0 30 -4 30 -9z m260 -23 c0 -16 -4 -28 -10 -28 -5 0 -10 6 -10 14
0 7 -7 19 -16 26 -12 11 -18 11 -31 -2 -14 -15 -13 -18 8 -35 54 -43 70 -64
67 -86 -4 -28 -44 -46 -85 -40 -30 5 -33 9 -33 39 0 42 8 43 21 4 12 -33 45
-41 56 -13 4 11 -6 27 -35 52 -66 56 -53 104 25 99 40 -3 43 -5 43 -30z m94
24 c4 -2 2 -8 -5 -12 -10 -7 -8 -19 7 -60 l20 -51 19 52 c13 38 15 54 7 57 -7
2 -12 8 -12 13 0 12 47 12 55 -1 3 -5 2 -10 -3 -10 -5 0 -26 -45 -47 -100 -20
-55 -43 -104 -51 -111 -16 -13 -46 -9 -52 8 -5 18 28 29 38 12 7 -10 11 -8 18
11 7 19 2 41 -20 95 -17 38 -34 74 -39 80 -5 5 -9 12 -9 16 0 8 60 9 74 1z
m256 -1 c0 -5 -5 -11 -12 -13 -8 -3 -6 -18 7 -51 10 -26 21 -45 25 -42 3 2 13
23 20 46 11 33 12 43 2 47 -23 7 -12 22 18 22 33 0 36 -6 15 -33 -7 -10 -24
-47 -36 -83 -23 -66 -35 -77 -46 -46 -5 14 -57 128 -71 155 -2 4 15 7 37 7 23
0 41 -4 41 -9z m208 -3 c7 -7 12 -39 12 -75 0 -47 4 -65 15 -69 33 -13 12 -21
-55 -22 -59 0 -72 3 -81 19 -14 28 3 54 51 73 42 17 53 43 25 66 -17 14 -36 5
-29 -15 8 -19 -23 -32 -38 -17 -9 9 -7 17 7 32 20 22 74 27 93 8z m112 0 c0
-9 3 -9 12 0 16 16 63 15 76 -1 6 -7 12 -44 14 -82 3 -67 4 -70 28 -70 24 0
25 3 28 64 2 36 -2 69 -7 74 -19 19 -12 28 17 25 26 -3 27 -4 30 -78 2 -41 8
-80 14 -87 8 -10 -8 -13 -83 -13 -72 0 -90 3 -81 12 7 7 12 40 12 80 0 59 -2
68 -18 68 -10 0 -23 -5 -30 -12 -16 -16 -16 -120 0 -136 9 -9 2 -12 -32 -12
-34 0 -41 3 -32 12 15 15 16 148 2 148 -5 0 -10 5 -10 10 0 6 14 10 30 10 17
0 30 -5 30 -12z m348 0 c7 -7 12 -39 12 -75 0 -47 4 -65 15 -69 33 -13 12 -21
-55 -22 -59 0 -72 3 -81 19 -14 28 3 54 51 73 42 17 53 43 25 66 -17 14 -36 5
-29 -15 8 -19 -23 -32 -38 -17 -9 9 -7 17 7 32 20 22 74 27 93 8z m402 2 c0
-6 8 -5 20 2 21 14 50 3 58 -20 7 -21 -30 -27 -44 -8 -12 17 -13 16 -23 -3
-18 -33 -14 -118 7 -130 13 -8 6 -10 -32 -11 -39 0 -47 3 -38 12 15 15 16 148
2 148 -5 0 -10 5 -10 10 0 6 14 10 30 10 17 0 30 -5 30 -10z m148 -70 c2 -41
8 -80 14 -87 8 -10 0 -13 -38 -13 -38 1 -45 3 -31 11 13 8 17 24 17 74 0 35
-4 67 -10 70 -20 12 -9 26 18 23 26 -3 27 -4 30 -78z m690 68 c7 -7 12 -40 12
-80 0 -55 3 -68 16 -68 8 0 12 -4 9 -10 -9 -14 -55 -12 -55 2 0 9 -3 9 -12 0
-17 -17 -63 -15 -78 3 -20 24 -7 49 35 70 58 29 66 43 39 69 -22 23 -34 20
-34 -9 0 -29 -27 -35 -37 -9 -13 35 76 61 105 32z m112 2 c0 -5 -5 -10 -10
-12 -7 -2 -4 -22 6 -53 l17 -49 23 59 c12 33 25 60 29 60 5 0 18 -27 31 -60
22 -60 22 -60 33 -32 19 50 24 77 12 77 -6 0 -11 4 -11 10 0 5 28 9 65 9 59
-1 84 -11 53 -21 -8 -3 -6 -18 7 -51 10 -26 21 -45 25 -42 3 2 13 23 20 46 11
33 12 43 2 47 -23 7 -12 22 18 22 31 0 37 -9 20 -26 -5 -5 -27 -55 -49 -109
-36 -94 -40 -100 -66 -100 -16 0 -30 6 -32 12 -6 18 27 29 37 13 6 -9 11 -7
19 9 10 18 7 34 -21 98 -18 42 -38 78 -45 80 -6 2 -22 -29 -38 -76 -15 -45
-31 -81 -35 -81 -5 0 -19 27 -31 60 -12 33 -23 59 -25 57 -2 -2 -12 -27 -22
-55 -9 -28 -21 -52 -27 -52 -7 -1 -74 149 -75 166 0 0 16 0 35 1 19 1 35 -3
35 -7z m482 -7 c10 -9 18 -27 18 -40 0 -21 -4 -23 -50 -23 -44 0 -50 -3 -50
-21 0 -54 44 -76 83 -41 19 16 19 16 16 -3 -6 -30 -50 -47 -87 -34 -81 28 -60
179 26 179 14 0 34 -7 44 -17z m98 1 c0 -14 2 -14 16 1 23 22 58 15 62 -12 3
-18 -2 -23 -17 -23 -13 0 -21 6 -21 17 0 16 -1 16 -16 1 -9 -9 -19 -39 -22
-66 -4 -43 -1 -51 19 -66 23 -16 22 -16 -29 -16 -49 0 -52 1 -38 16 22 21 22
132 1 140 -21 9 -8 24 21 24 15 0 24 -6 24 -16z m210 -16 c0 -16 -4 -28 -10
-28 -5 0 -10 6 -10 14 0 7 -7 19 -16 26 -12 11 -18 11 -31 -2 -14 -15 -13 -18
8 -35 54 -43 70 -64 67 -86 -4 -28 -44 -46 -85 -40 -30 5 -33 9 -33 39 0 42 8
43 21 4 12 -33 45 -41 56 -13 4 11 -6 27 -35 52 -66 56 -53 104 25 99 40 -3
43 -5 43 -30z m560 -46 c0 -47 5 -83 12 -90 9 -9 2 -12 -32 -12 -34 0 -41 3
-32 12 15 15 16 148 2 148 -5 0 -10 5 -10 10 0 6 14 10 30 10 l30 0 0 -78z
m248 66 c7 -7 12 -40 12 -80 0 -55 3 -68 16 -68 8 0 12 -4 9 -10 -9 -14 -55
-12 -55 2 0 9 -3 9 -12 0 -17 -17 -63 -15 -78 3 -20 24 -7 49 35 70 58 29 66
43 39 69 -22 23 -34 20 -34 -9 0 -29 -27 -35 -37 -9 -13 35 76 61 105 32z
m366 -4 c9 -8 16 -26 16 -40 0 -22 -4 -24 -50 -24 -41 0 -50 -3 -50 -18 0 -50
67 -83 89 -44 9 15 10 15 11 1 0 -24 -27 -42 -62 -42 -39 0 -78 42 -78 84 0
34 23 85 42 92 27 11 67 6 82 -9z m196 4 c0 -9 3 -9 12 0 18 18 63 14 82 -7
21 -23 25 -96 7 -129 -14 -27 -50 -43 -80 -35 -27 7 -29 -24 -3 -43 15 -12 11
-13 -32 -14 -39 0 -47 3 -38 12 15 15 17 208 2 208 -5 0 -10 5 -10 10 0 6 14
10 30 10 17 0 30 -5 30 -12z m390 -68 c0 -65 3 -81 18 -89 13 -8 6 -10 -32
-11 -39 0 -47 3 -38 12 15 15 16 148 2 148 -5 0 -10 5 -10 10 0 6 14 10 30 10
l30 0 0 -80z m154 64 c11 -11 16 -35 16 -80 0 -51 3 -64 16 -64 8 0 12 -4 9
-10 -9 -14 -55 -12 -55 2 0 9 -3 9 -12 0 -7 -7 -27 -12 -45 -12 -27 0 -34 5
-39 25 -8 31 8 51 53 70 25 11 33 20 33 39 0 15 -2 26 -4 26 -2 0 -11 3 -20 6
-12 5 -16 0 -16 -20 0 -19 -5 -26 -20 -26 -25 0 -27 35 -2 49 26 15 69 13 86
-5z m471 0 c19 -19 15 -38 -8 -42 -11 -2 -17 3 -17 17 0 30 -17 34 -40 11 -22
-22 -27 -78 -10 -111 13 -23 47 -25 72 -2 10 9 18 12 18 7 0 -15 -14 -30 -38
-43 -47 -25 -102 21 -102 85 0 30 24 80 42 87 27 11 67 6 83 -9z m160 0 c19
-19 15 -38 -8 -42 -11 -2 -17 3 -17 17 0 30 -17 34 -40 11 -22 -22 -27 -78
-10 -111 13 -23 47 -25 72 -2 10 9 18 12 18 7 0 -15 -14 -30 -38 -43 -47 -25
-102 21 -102 85 0 30 24 80 42 87 27 11 67 6 83 -9z m95 -62 c0 -47 5 -83 12
-90 9 -9 2 -12 -32 -12 -34 0 -41 3 -32 12 15 15 16 148 2 148 -5 0 -10 5 -10
10 0 6 14 10 30 10 l30 0 0 -78z m354 62 c9 -8 16 -26 16 -40 0 -22 -4 -24
-50 -24 -41 0 -50 -3 -50 -18 0 -50 67 -83 89 -44 9 15 10 15 11 1 0 -24 -27
-42 -62 -42 -39 0 -78 42 -78 84 0 34 23 85 42 92 27 11 67 6 82 -9z m102 5
c4 -8 9 -8 17 0 18 18 65 13 77 -8 5 -11 10 -46 10 -78 0 -33 5 -64 12 -71 9
-9 2 -12 -32 -12 -34 0 -41 3 -32 12 7 7 12 40 12 80 0 59 -2 68 -18 68 -31 0
-42 -22 -42 -80 0 -31 5 -61 12 -68 9 -9 1 -12 -37 -12 -39 1 -46 3 -32 11 13
8 17 24 17 74 0 35 -4 67 -10 70 -5 3 -10 10 -10 16 0 13 47 11 56 -2z m-4426
-597 c0 -78 4 -122 12 -130 9 -9 2 -12 -32 -12 -34 0 -41 3 -32 12 16 16 16
220 0 236 -9 9 -5 12 20 12 l32 0 0 -118z m263 106 c6 -19 -3 -38 -18 -38 -18
0 -28 17 -21 35 7 18 33 20 39 3z m-382 -18 c13 -8 19 -7 19 0 0 6 4 9 8 6 4
-3 6 -21 4 -40 l-4 -36 -22 33 c-18 26 -29 32 -56 32 -30 0 -38 -5 -52 -35
-37 -73 -8 -180 48 -180 37 0 61 16 69 47 8 27 8 27 16 -12 6 -38 1 -64 -8
-38 -3 8 -13 8 -39 -3 -117 -49 -200 125 -103 215 25 23 86 28 120 11z m1089
-97 c23 -59 46 -113 52 -120 8 -10 1 -13 -32 -13 -35 0 -40 3 -31 14 8 9 8 21
0 45 -10 27 -15 31 -49 31 -33 0 -39 -4 -48 -29 -8 -23 -7 -32 6 -45 15 -15
13 -16 -22 -16 -36 0 -38 1 -24 18 8 9 33 63 54 120 21 56 42 102 46 102 3 0
25 -48 48 -107z m120 72 c0 -22 4 -25 35 -25 31 0 35 3 35 25 0 18 5 25 20 25
15 0 20 -7 20 -25 0 -18 5 -25 20 -25 11 0 20 -4 20 -10 0 -5 -9 -10 -20 -10
-18 0 -20 -7 -20 -69 0 -76 10 -93 34 -59 13 17 16 19 16 6 0 -20 -26 -48 -45
-48 -31 0 -45 30 -45 101 l0 69 -35 0 -35 0 0 -63 c0 -75 15 -99 42 -65 14 19
18 20 18 6 0 -15 -35 -48 -52 -48 -3 0 -14 7 -22 16 -12 11 -16 35 -16 85 0
55 -3 69 -15 69 -8 0 -15 5 -15 10 0 6 7 10 15 10 9 0 15 9 15 25 0 16 6 25
15 25 9 0 15 -9 15 -25z m-936 -47 c10 -14 16 -44 16 -80 0 -32 4 -58 10 -58
6 0 10 -4 10 -9 0 -5 -33 -9 -72 -8 -68 2 -73 4 -76 25 -4 29 12 49 55 67 25
11 33 20 33 39 0 15 -4 27 -10 28 -29 4 -35 1 -35 -17 0 -11 -8 -21 -17 -23
-13 -2 -18 3 -18 17 0 42 78 57 104 19z m106 -58 c0 -65 3 -81 18 -89 13 -8 6
-10 -31 -11 -44 0 -47 1 -33 16 22 21 22 132 1 140 -21 9 -8 24 21 24 23 0 24
-2 24 -80z m100 71 c0 -5 14 -4 30 2 24 9 35 9 51 -2 15 -9 24 -10 32 -2 15
15 60 14 75 -1 7 -7 12 -40 12 -80 0 -53 4 -69 18 -77 13 -8 6 -10 -32 -11
-39 0 -47 3 -38 12 7 7 12 40 12 80 0 61 -2 68 -20 68 -27 0 -40 -29 -40 -89
0 -37 5 -53 18 -60 13 -8 6 -10 -32 -11 -39 0 -47 3 -38 12 7 7 12 40 12 80 0
61 -2 68 -20 68 -10 0 -24 -9 -30 -19 -14 -27 -13 -114 2 -129 9 -9 2 -12 -32
-12 -34 0 -41 3 -32 12 15 15 16 148 2 148 -5 0 -10 5 -10 10 0 6 14 10 30 10
17 0 30 -4 30 -9z m360 -23 c0 -32 -19 -38 -27 -9 -5 21 -29 35 -44 25 -18
-11 -8 -31 31 -63 27 -21 40 -40 40 -56 0 -35 -36 -56 -83 -48 -34 5 -37 8
-37 39 0 42 12 44 27 4 12 -33 46 -41 57 -15 6 16 -11 37 -51 65 -56 39 -31
91 42 88 42 -2 45 -4 45 -30z m660 22 c38 -20 48 -109 17 -149 -31 -39 -105
-30 -126 15 -39 87 32 175 109 134z m120 0 c0 -6 8 -5 20 2 21 14 50 3 58 -20
7 -21 -30 -27 -44 -8 -12 17 -13 16 -23 -3 -18 -33 -14 -118 7 -130 13 -8 6
-10 -32 -11 -39 0 -47 3 -38 12 15 15 16 148 2 148 -5 0 -10 5 -10 10 0 6 14
10 30 10 17 0 30 -5 30 -10z m146 -1 c4 -8 9 -8 17 0 18 18 65 13 77 -8 5 -11
10 -46 10 -78 0 -33 5 -64 12 -71 9 -9 2 -12 -32 -12 -34 0 -41 3 -32 12 7 7
12 40 12 80 0 59 -2 68 -18 68 -31 0 -42 -22 -42 -80 0 -31 5 -61 12 -68 9 -9
1 -12 -37 -12 -39 1 -46 3 -32 11 13 8 17 24 17 74 0 35 -4 67 -10 70 -5 3
-10 10 -10 16 0 13 47 11 56 -2z m266 -6 c10 -9 18 -27 18 -40 0 -21 -4 -23
-50 -23 -44 0 -50 -3 -50 -21 0 -54 44 -76 83 -41 19 16 19 16 16 -3 -6 -30
-50 -47 -87 -34 -81 28 -60 179 26 179 14 0 34 -7 44 -17z m108 7 c0 -4 -5
-10 -12 -12 -8 -3 -6 -18 7 -51 10 -26 21 -45 25 -42 3 2 13 23 20 46 11 33
12 43 2 47 -23 7 -12 22 18 22 31 0 37 -9 20 -26 -5 -5 -27 -55 -49 -109 -36
-94 -40 -100 -66 -100 -16 0 -30 6 -32 12 -6 18 27 29 37 13 6 -9 11 -7 19 9
10 17 6 34 -20 96 -17 41 -35 77 -40 81 -20 12 -7 22 31 22 22 0 40 -3 40 -8z
m220 -22 c0 -32 -19 -38 -27 -9 -5 21 -29 35 -44 25 -18 -11 -8 -31 31 -63 27
-21 40 -40 40 -56 0 -35 -36 -56 -83 -48 -34 5 -37 8 -37 39 0 42 12 44 27 4
12 -33 46 -41 57 -15 6 16 -11 37 -51 65 -56 39 -31 91 42 88 42 -2 45 -4 45
-30z"/>
<path d="M3235 5204 c-85 -44 -156 -154 -179 -275 l-6 -36 62 10 c145 22 224
78 248 177 27 111 -35 171 -125 124z"/>
<path d="M7974 5210 c-30 -12 -91 -86 -124 -150 -69 -138 -110 -294 -110 -424
0 -69 4 -88 21 -110 42 -53 130 -20 202 76 97 131 179 389 161 507 -13 83 -81
129 -150 101z"/>
<path d="M4852 3634 c-25 -18 -29 -42 -7 -50 21 -9 45 14 45 42 0 28 -7 30
-38 8z"/>
<path d="M7260 3701 c-20 -38 -9 -115 17 -125 30 -12 43 14 43 80 0 61 -1 64
-25 64 -14 0 -29 -8 -35 -19z"/>
<path d="M9080 3701 c-20 -38 -9 -115 17 -125 30 -12 43 14 43 80 0 61 -1 64
-25 64 -14 0 -29 -8 -35 -19z"/>
<path d="M2387 3783 c-4 -3 -7 -30 -7 -60 0 -49 2 -53 23 -53 13 0 28 5 35 12
13 13 16 67 4 84 -9 15 -46 26 -55 17z"/>
<path d="M6537 3783 c-4 -3 -7 -30 -7 -60 0 -49 2 -53 23 -53 13 0 28 5 35 12
13 13 16 67 4 84 -9 15 -46 26 -55 17z"/>
<path d="M8461 3699 c-6 -18 -11 -34 -11 -35 0 -2 14 -4 30 -4 17 0 30 2 30 4
0 14 -24 66 -30 66 -4 0 -13 -14 -19 -31z"/>
<path d="M2566 3715 c-26 -26 -20 -45 14 -45 23 0 30 5 30 19 0 30 -25 45 -44
26z"/>
<path d="M3692 3634 c-25 -18 -29 -42 -7 -50 21 -9 45 14 45 42 0 28 -7 30
-38 8z"/>
<path d="M4152 3634 c-25 -18 -29 -42 -7 -50 21 -9 45 14 45 42 0 28 -7 30
-38 8z"/>
<path d="M5392 3634 c-25 -18 -29 -42 -7 -50 21 -9 45 14 45 42 0 28 -7 30
-38 8z"/>
<path d="M5976 3715 c-26 -26 -20 -45 14 -45 23 0 30 5 30 19 0 30 -25 45 -44
26z"/>
<path d="M7102 3634 c-25 -18 -29 -42 -7 -50 21 -9 45 14 45 42 0 28 -7 30
-38 8z"/>
<path d="M7456 3709 c-19 -27 -13 -39 20 -39 22 0 25 4 22 27 -4 34 -22 40
-42 12z"/>
<path d="M7731 3701 c-18 -32 -14 -121 5 -128 40 -15 72 48 56 110 -10 39 -45
49 -61 18z"/>
<path d="M8213 3637 c-30 -13 -32 -57 -3 -57 23 0 33 18 28 48 -2 16 -7 18
-25 9z"/>
<path d="M9276 3709 c-19 -27 -13 -39 20 -39 22 0 25 4 22 27 -4 34 -22 40
-42 12z"/>
<path d="M5911 3129 c-6 -18 -11 -34 -11 -35 0 -2 14 -4 30 -4 17 0 30 2 30 4
0 14 -24 66 -30 66 -4 0 -13 -14 -19 -31z"/>
<path d="M5110 3060 c-24 -24 -16 -52 14 -48 16 2 22 11 24 36 4 37 -9 41 -38
12z"/>
<path d="M6336 3138 c-19 -27 -21 -98 -3 -122 20 -27 50 -16 60 21 21 73 -23
150 -57 101z"/>
<path d="M6866 3145 c-26 -26 -20 -45 14 -45 23 0 30 5 30 19 0 30 -25 45 -44
26z"/>
</g>
</svg>
